<svg viewBox="0 0 218.3923 61.0371" width="5000px" height="1397.4187912461211px" xmlns="http://www.w3.org/2000/svg" xmlns:xlink="http://www.w3.org/1999/xlink" preserveAspectRatio="none"><defs></defs><style>.aIay6zw1vs0filter-floo {flood-color:#393939;flood-opacity:0.5;}.companyName {fill:#393939;fill-opacity:1;}.text {fill:#393939;fill-opacity:1;}</style><defs>
      <filter x="-1000" y="-1000" width="2000" height="2000" id="Iay6zw1vs" filterUnits="userSpaceOnUse" primitiveUnits="userSpaceOnUse" color-interpolation-filters="sRGB">
        <feMerge><feMergeNode in="SourceGraphic"></feMergeNode></feMerge>
      </filter></defs><g opacity="1" transform="rotate(0 20.102499999999992 43.03710000000001)">
<svg width="178.1874" height="18" x="20.102499999999992" y="43.03710000000001" version="1.1" preserveAspectRatio="none" viewBox="1.2 -28.8 396 40">
  <g transform="matrix(1 0 0 1 0 0)" class="text"><path d="M19.80 3.48Q18.44 3.48 16.32 0.94Q14.20-1.60 12.08-5.18Q9.96-8.76 8.64-11.64L8.64-11.64L4.76 0.92Q4.40 2.12 3.50 2.44Q2.60 2.76 1.20 2.76L1.20 2.76Q2.12 0.68 3.36-2.78Q4.60-6.24 7.52-14.80L7.52-14.80L10.92-24.76Q10.96-24.84 11.20-25.50Q11.44-26.16 11.44-26.72L11.44-26.72Q11.44-27.68 10.48-27.68L10.48-27.68Q9.24-27.68 8.10-26.40Q6.96-25.12 6.24-23.32Q5.52-21.52 5.52-20.16L5.52-20.16Q5.52-19.40 5.72-18.80L5.72-18.80Q4.48-18.80 3.90-19.42Q3.32-20.04 3.32-21.08L3.32-21.08Q3.32-22.80 4.66-24.62Q6-26.44 7.92-27.62Q9.84-28.80 11.32-28.80L11.32-28.80Q12.32-28.80 12.74-28.26Q13.16-27.72 13.16-26.88L13.16-26.88Q13.16-26.20 12.84-25.16L12.84-25.16L9.48-14.28Q9.88-14.80 10.56-15.40Q11.24-16 12-16.60L12-16.60L12.92-17.32Q15.92-19.72 19.02-22.88Q22.12-26.04 23.84-28.80L23.84-28.80Q24-28.60 24.10-28.02Q24.20-27.44 24.20-27.04L24.20-27.04Q24.20-22.68 9.64-12.88L9.64-12.88Q11.80-9.24 13.14-7.20Q14.48-5.16 16.60-2.82Q18.72-0.48 21.96 2.16L21.96 2.16Q21.68 2.72 21.08 3.10Q20.48 3.48 19.80 3.48L19.80 3.48Z M30.76 1.04Q29.40 1.04 28.62 0.32Q27.84-0.40 27.84-1.56L27.84-1.56Q27.84-2.92 29-5.48L29-5.48Q29.52-6.80 29.78-7.58Q30.04-8.36 30.04-9.04L30.04-9.04Q30.04-10.04 29.58-10.62Q29.12-11.20 28.56-11.58Q28-11.96 27.80-12.08L27.80-12.08Q26.92-9.84 25.92-7.70Q24.92-5.56 24.24-4.40L24.24-4.40L23.88-5.08Q25.80-8.80 27.12-12.68L27.12-12.68Q26.72-13.08 26.72-13.64L26.72-13.64Q26.72-14.36 27.02-15Q27.32-15.64 27.74-16Q28.16-16.36 28.40-16.36L28.40-16.36Q28.96-16.36 28.96-15.40L28.96-15.40Q28.96-15.24 28.76-14.68Q28.56-14.12 28.52-13.92L28.52-13.92Q28.52-13.52 28.86-13.18Q29.20-12.84 29.96-12.32L29.96-12.32Q31.20-11.44 31.90-10.58Q32.60-9.72 32.60-8.36L32.60-8.36Q32.60-7.48 32.32-6.62Q32.04-5.76 31.48-4.36L31.48-4.36Q30.60-2.44 30.60-1.60L30.60-1.60Q30.60-0.40 31.80-0.40L31.80-0.40Q33-0.40 34.38-1.36Q35.76-2.32 36.92-3.74Q38.08-5.16 38.60-6.36L38.60-6.36L39.12-5.96Q37.88-3.20 35.52-1.08Q33.16 1.04 30.76 1.04L30.76 1.04Z M44.08 1.76Q41.72 1.76 40.46 0.46Q39.20-0.84 39.20-2.88L39.20-2.88Q39.20-5.24 40.76-7.96Q42.32-10.68 44.70-12.54Q47.08-14.40 49.36-14.40L49.36-14.40Q51.84-14.40 51.84-11.96L51.84-11.96Q51.84-10 50.36-8.30Q48.88-6.60 46.56-5.52Q44.24-4.44 41.92-4.20L41.92-4.20Q41.76-3.52 41.76-2.76L41.76-2.76Q41.76-1.32 42.48-0.36Q43.20 0.60 44.92 0.60L44.92 0.60Q47.36 0.60 49.84-1.44Q52.32-3.48 53.88-6.48L53.88-6.48L54.36-6.12Q52.76-2.56 49.92-0.40Q47.08 1.76 44.08 1.76L44.08 1.76ZM42.12-4.96Q43.80-5.56 45.64-6.64Q47.48-7.72 48.78-9.18Q50.08-10.64 50.08-12.24L50.08-12.24Q50.08-12.72 49.90-12.94Q49.72-13.16 49.24-13.16L49.24-13.16Q48-13.16 46.54-11.92Q45.08-10.68 43.86-8.76Q42.64-6.84 42.12-4.96L42.12-4.96Z M57 1.88Q55.68 1.88 54.86 1.02Q54.04 0.16 54.04-1.44L54.04-1.44Q54.04-3.80 55.74-6.72Q57.44-9.64 60.04-11.68Q62.64-13.72 65.12-13.72L65.12-13.72Q66.68-13.72 67.72-12.88Q68.76-12.04 68.76-10.72L68.76-10.72Q68.76-9.80 68.24-9.40Q67.72-9 66.80-9L66.80-9Q67-9.72 67-10.40L67-10.40Q67-11.40 66.52-12.02Q66.04-12.64 65.04-12.64L65.04-12.64Q63.28-12.64 61.34-10.68Q59.40-8.72 58.10-6Q56.80-3.28 56.80-1.32L56.80-1.32Q56.80 0.24 57.88 0.24L57.88 0.24Q59.48 0.24 61.64-2.30Q63.80-4.84 66.28-8.48L66.28-8.48Q66.80-8.40 67.34-8.14Q67.88-7.88 67.88-7.48L67.88-7.48Q67.88-7.16 67.50-6.46Q67.12-5.76 67.04-5.64L67.04-5.64Q66.36-4.48 65.96-3.58Q65.56-2.68 65.56-1.92L65.56-1.92Q65.56-1.24 65.90-0.70Q66.24-0.16 66.92-0.16L66.92-0.16Q68.08-0.16 69.84-1.82Q71.60-3.48 73.32-6.48L73.32-6.48L73.72-6.08Q72.88-3.96 71.56-2.30Q70.24-0.64 68.72 0.28Q67.20 1.20 65.80 1.20L65.80 1.20Q64.40 1.20 63.66 0.38Q62.92-0.44 62.92-1.60L62.92-1.60Q62.92-2.12 63.04-2.76L63.04-2.76Q61.24-0.36 59.82 0.76Q58.40 1.88 57 1.88L57 1.88Z M77.92 1.84Q74.36 1.84 74.36-2.12L74.36-2.12Q74.36-3.84 74.98-6.38Q75.60-8.92 76.68-11.76L76.68-11.76Q75.72-11.92 75.24-12.08L75.24-12.08L75.24-12.80Q76.68-12.64 77-12.64L77-12.64Q78.76-17.20 80.78-20.54Q82.80-23.88 83.96-23.88L83.96-23.88Q84.28-23.88 84.54-23.64Q84.80-23.40 84.80-23L84.80-23Q84.80-22.48 84.30-21.48Q83.80-20.48 82.60-18.40L82.60-18.40Q82.40-18 81.36-16.18Q80.32-14.36 79.48-12.52L79.48-12.52L80.96-12.52Q84.28-12.52 86.68-12.76L86.68-12.76L86.68-12.04Q82.32-11.56 79.64-11.56L79.64-11.56L79.04-11.56Q76.84-6.52 76.84-2.84L76.84-2.84Q76.84-1.12 77.36-0.38Q77.88 0.36 79.08 0.36L79.08 0.36Q81.12 0.36 83.12-1.46Q85.12-3.28 86.68-6.48L86.68-6.48L87.20-6.08Q85.72-2.60 83.20-0.38Q80.68 1.84 77.92 1.84L77.92 1.84Z M95.60-17.28Q94.88-17.28 94.42-17.62Q93.96-17.96 93.96-18.60L93.96-18.60Q93.96-19.40 94.92-20.04Q95.88-20.68 96.88-20.68L96.88-20.68Q98.20-20.68 98.20-19.44L98.20-19.44Q98.20-18.68 97.38-17.98Q96.56-17.28 95.60-17.28L95.60-17.28ZM90.80 1.04Q89.32 1.04 88.52 0.10Q87.72-0.84 87.72-2.32L87.72-2.32Q87.72-3.88 88.62-6.64Q89.52-9.40 90.86-11.48Q92.20-13.56 93.48-13.56L93.48-13.56Q93.84-13.56 94.10-13.32Q94.36-13.08 94.36-12.68L94.36-12.68Q94.36-12.12 93.08-10L93.08-10Q91.76-7.80 90.98-6.06Q90.20-4.32 90.20-2.76L90.20-2.76Q90.20-1.36 90.66-0.86Q91.12-0.36 92.16-0.36L92.16-0.36Q95.28-0.36 98.32-6.48L98.32-6.48L98.68-6.08Q97.56-2.72 95.38-0.84Q93.20 1.04 90.80 1.04L90.80 1.04Z M102.16 1.56Q100.96 1.56 100.46 0.42Q99.96-0.72 99.96-2.84L99.96-2.84Q99.96-3.60 100.20-8.08L100.20-8.08Q100.28-9.28 100.48-9.62Q100.68-9.96 101.48-9.96L101.48-9.96Q102.16-9.96 102.34-9.70Q102.52-9.44 102.52-8.68L102.52-8.68Q102.52-7.88 102.36-5.72L102.36-5.72Q102.16-3.80 102.16-2.24L102.16-2.24Q102.16-1.04 102.36-0.52Q102.56 0 103.08 0L103.08 0Q104.40 0 106.28-2.70Q108.16-5.40 109.68-8.76L109.68-8.76Q109.76-11.28 110.22-12.28Q110.68-13.28 111.52-13.28L111.52-13.28Q112.20-13.28 112.58-12.78Q112.96-12.28 112.96-11.76L112.96-11.76Q112.96-11.36 112.56-10.64L112.56-10.64Q112.08-9.72 111.82-8.82Q111.56-7.92 111.56-6.40L111.56-6.40Q111.56-5.08 111.94-4.22Q112.32-3.36 113.44-3.36L113.44-3.36Q114.32-3.36 115.08-4.04Q115.84-4.72 116.60-6.32L116.60-6.32L117.12-5.92Q115.68-2.56 113.16-2.56L113.16-2.56Q111.80-2.56 110.94-3.54Q110.08-4.52 109.80-6.44L109.80-6.44Q108.16-3.16 106.06-0.80Q103.96 1.56 102.16 1.56L102.16 1.56Z M125.52-17.28Q124.80-17.28 124.34-17.62Q123.88-17.96 123.88-18.60L123.88-18.60Q123.88-19.40 124.84-20.04Q125.80-20.68 126.80-20.68L126.80-20.68Q128.12-20.68 128.12-19.44L128.12-19.44Q128.12-18.68 127.30-17.98Q126.48-17.28 125.52-17.28L125.52-17.28ZM120.72 1.04Q119.24 1.04 118.44 0.10Q117.64-0.84 117.64-2.32L117.64-2.32Q117.64-3.88 118.54-6.64Q119.44-9.40 120.78-11.48Q122.12-13.56 123.40-13.56L123.40-13.56Q123.76-13.56 124.02-13.32Q124.28-13.08 124.28-12.68L124.28-12.68Q124.28-12.12 123-10L123-10Q121.68-7.80 120.90-6.06Q120.12-4.32 120.12-2.76L120.12-2.76Q120.12-1.36 120.58-0.86Q121.04-0.36 122.08-0.36L122.08-0.36Q125.20-0.36 128.24-6.48L128.24-6.48L128.60-6.08Q127.48-2.72 125.30-0.84Q123.12 1.04 120.72 1.04L120.72 1.04Z M132.88 1.84Q129.32 1.84 129.32-2.12L129.32-2.12Q129.32-3.84 129.94-6.38Q130.56-8.92 131.64-11.76L131.64-11.76Q130.68-11.92 130.20-12.08L130.20-12.08L130.20-12.80Q131.64-12.64 131.96-12.64L131.96-12.64Q133.72-17.20 135.74-20.54Q137.76-23.88 138.92-23.88L138.92-23.88Q139.24-23.88 139.50-23.64Q139.76-23.40 139.76-23L139.76-23Q139.76-22.48 139.26-21.48Q138.76-20.48 137.56-18.40L137.56-18.40Q137.36-18 136.32-16.18Q135.28-14.36 134.44-12.52L134.44-12.52L135.92-12.52Q139.24-12.52 141.64-12.76L141.64-12.76L141.64-12.04Q137.28-11.56 134.60-11.56L134.60-11.56L134.00-11.56Q131.80-6.52 131.80-2.84L131.80-2.84Q131.80-1.12 132.32-0.38Q132.84 0.36 134.04 0.36L134.04 0.36Q136.08 0.36 138.08-1.46Q140.08-3.28 141.64-6.48L141.64-6.48L142.16-6.08Q140.68-2.60 138.16-0.38Q135.64 1.84 132.88 1.84L132.88 1.84Z M144.80 1.88Q143.48 1.88 142.66 1.02Q141.84 0.16 141.84-1.44L141.84-1.44Q141.84-3.80 143.54-6.72Q145.24-9.64 147.84-11.68Q150.44-13.72 152.92-13.72L152.92-13.72Q154.48-13.72 155.52-12.88Q156.56-12.04 156.56-10.72L156.56-10.72Q156.56-9.80 156.04-9.40Q155.52-9 154.60-9L154.60-9Q154.80-9.72 154.80-10.40L154.80-10.40Q154.80-11.40 154.32-12.02Q153.84-12.64 152.84-12.64L152.84-12.64Q151.08-12.64 149.14-10.68Q147.20-8.72 145.90-6Q144.60-3.28 144.60-1.32L144.60-1.32Q144.60 0.24 145.68 0.24L145.68 0.24Q147.28 0.24 149.44-2.30Q151.60-4.84 154.08-8.48L154.08-8.48Q154.60-8.40 155.14-8.14Q155.68-7.88 155.68-7.48L155.68-7.48Q155.68-7.16 155.30-6.46Q154.92-5.76 154.84-5.64L154.84-5.64Q154.16-4.48 153.76-3.58Q153.36-2.68 153.36-1.92L153.36-1.92Q153.36-1.24 153.70-0.70Q154.04-0.16 154.72-0.16L154.72-0.16Q155.88-0.16 157.64-1.82Q159.40-3.48 161.12-6.48L161.12-6.48L161.52-6.08Q160.68-3.96 159.36-2.30Q158.04-0.64 156.52 0.28Q155.00 1.20 153.60 1.20L153.60 1.20Q152.20 1.20 151.46 0.38Q150.72-0.44 150.72-1.60L150.72-1.60Q150.72-2.12 150.84-2.76L150.84-2.76Q149.04-0.36 147.62 0.76Q146.20 1.88 144.80 1.88L144.80 1.88ZM151.72-17.44Q151.08-17.44 150.66-17.74Q150.24-18.04 150.24-18.64L150.24-18.64Q150.24-19.36 151.10-19.94Q151.96-20.52 152.88-20.52L152.88-20.52Q154.08-20.52 154.08-19.40L154.08-19.40Q154.08-18.72 153.34-18.08Q152.60-17.44 151.72-17.44L151.72-17.44ZM157.48-16.60Q156.84-16.60 156.42-16.90Q156.00-17.20 156.00-17.80L156.00-17.80Q156.00-18.52 156.86-19.10Q157.72-19.68 158.64-19.68L158.64-19.68Q159.84-19.68 159.84-18.56L159.84-18.56Q159.84-17.88 159.10-17.24Q158.36-16.60 157.48-16.60L157.48-16.60Z M165.72 1.84Q162.16 1.84 162.16-2.12L162.16-2.12Q162.16-3.84 162.78-6.38Q163.40-8.92 164.48-11.76L164.48-11.76Q163.52-11.92 163.04-12.08L163.04-12.08L163.04-12.80Q164.48-12.64 164.80-12.64L164.80-12.64Q166.56-17.20 168.58-20.54Q170.60-23.88 171.76-23.88L171.76-23.88Q172.08-23.88 172.34-23.64Q172.60-23.40 172.60-23L172.60-23Q172.60-22.48 172.10-21.48Q171.60-20.48 170.40-18.40L170.40-18.40Q170.20-18 169.16-16.18Q168.12-14.36 167.28-12.52L167.28-12.52L168.76-12.52Q172.08-12.52 174.48-12.76L174.48-12.76L174.48-12.04Q170.12-11.56 167.44-11.56L167.44-11.56L166.84-11.56Q164.64-6.52 164.64-2.84L164.64-2.84Q164.64-1.12 165.16-0.38Q165.68 0.36 166.88 0.36L166.88 0.36Q168.92 0.36 170.92-1.46Q172.92-3.28 174.48-6.48L174.48-6.48L175.00-6.08Q173.52-2.60 171.00-0.38Q168.48 1.84 165.72 1.84L165.72 1.84Z M191.52 1.84Q187.96 1.84 187.96-2.12L187.96-2.12Q187.96-3.84 188.58-6.38Q189.20-8.92 190.28-11.76L190.28-11.76Q189.32-11.92 188.84-12.08L188.84-12.08L188.84-12.80Q190.28-12.64 190.60-12.64L190.60-12.64Q192.36-17.20 194.38-20.54Q196.40-23.88 197.56-23.88L197.56-23.88Q197.88-23.88 198.14-23.64Q198.40-23.40 198.40-23L198.40-23Q198.40-22.48 197.90-21.48Q197.40-20.48 196.20-18.40L196.20-18.40Q196.00-18 194.96-16.18Q193.92-14.36 193.08-12.52L193.08-12.52L194.56-12.52Q197.88-12.52 200.28-12.76L200.28-12.76L200.28-12.04Q195.92-11.56 193.24-11.56L193.24-11.56L192.64-11.56Q190.44-6.52 190.44-2.84L190.44-2.84Q190.44-1.12 190.96-0.38Q191.48 0.36 192.68 0.36L192.68 0.36Q194.72 0.36 196.72-1.46Q198.72-3.28 200.28-6.48L200.28-6.48L200.80-6.08Q199.32-2.60 196.80-0.38Q194.28 1.84 191.52 1.84L191.52 1.84Z M208.44 1.04Q207.08 1.04 206.30 0.32Q205.52-0.40 205.52-1.56L205.52-1.56Q205.52-2.92 206.68-5.48L206.68-5.48Q207.20-6.80 207.46-7.58Q207.72-8.36 207.72-9.04L207.72-9.04Q207.72-10.04 207.26-10.62Q206.80-11.20 206.24-11.58Q205.68-11.96 205.48-12.08L205.48-12.08Q204.60-9.84 203.60-7.70Q202.60-5.56 201.92-4.40L201.92-4.40L201.56-5.08Q203.48-8.80 204.80-12.68L204.80-12.68Q204.40-13.08 204.40-13.64L204.40-13.64Q204.40-14.36 204.70-15Q205.00-15.64 205.42-16Q205.84-16.36 206.08-16.36L206.08-16.36Q206.64-16.36 206.64-15.40L206.64-15.40Q206.64-15.24 206.44-14.68Q206.24-14.12 206.20-13.92L206.20-13.92Q206.20-13.52 206.54-13.18Q206.88-12.84 207.64-12.32L207.64-12.32Q208.88-11.44 209.58-10.58Q210.28-9.72 210.28-8.36L210.28-8.36Q210.28-7.48 210.00-6.62Q209.72-5.76 209.16-4.36L209.16-4.36Q208.28-2.44 208.28-1.60L208.28-1.60Q208.28-0.40 209.48-0.40L209.48-0.40Q210.68-0.40 212.06-1.36Q213.44-2.32 214.60-3.74Q215.76-5.16 216.28-6.36L216.28-6.36L216.80-5.96Q215.56-3.20 213.20-1.08Q210.84 1.04 208.44 1.04L208.44 1.04Z M225.12-17.28Q224.40-17.28 223.94-17.62Q223.48-17.96 223.48-18.60L223.48-18.60Q223.48-19.40 224.44-20.04Q225.40-20.68 226.40-20.68L226.40-20.68Q227.72-20.68 227.72-19.44L227.72-19.44Q227.72-18.68 226.90-17.98Q226.08-17.28 225.12-17.28L225.12-17.28ZM220.32 1.04Q218.84 1.04 218.04 0.10Q217.24-0.84 217.24-2.32L217.24-2.32Q217.24-3.88 218.14-6.64Q219.04-9.40 220.38-11.48Q221.72-13.56 223.00-13.56L223.00-13.56Q223.36-13.56 223.62-13.32Q223.88-13.08 223.88-12.68L223.88-12.68Q223.88-12.12 222.60-10L222.60-10Q221.28-7.80 220.50-6.06Q219.72-4.32 219.72-2.76L219.72-2.76Q219.72-1.36 220.18-0.86Q220.64-0.36 221.68-0.36L221.68-0.36Q224.80-0.36 227.84-6.48L227.84-6.48L228.20-6.08Q227.08-2.72 224.90-0.84Q222.72 1.04 220.32 1.04L220.32 1.04Z M228.56 11.20Q227.72 11.20 227.04 10.42Q226.36 9.64 226.36 7.68L226.36 7.68Q226.36 3.48 229.36-5.54Q232.36-14.56 236.38-21.68Q240.40-28.80 243.48-28.80L243.48-28.80Q244.24-28.80 244.54-28.34Q244.84-27.88 244.84-27.04L244.84-27.04Q244.84-24.84 243.28-22.04Q241.72-19.24 239.24-16.56Q236.76-13.88 234.16-12.08L234.16-12.08Q233.88-11.44 233.40-10.08L233.40-10.08Q233.80-10 234.06-9.62Q234.32-9.24 234.40-8.80L234.40-8.80Q234.72-6.56 235.04-5.32Q235.36-4.08 236.02-3.32Q236.68-2.56 237.88-2.56L237.88-2.56Q239.20-2.56 240.14-3.48Q241.08-4.40 242.32-6.48L242.32-6.48L242.92-6.08Q241.96-3.84 240.48-2.68Q239.00-1.52 237.68-1.52L237.68-1.52Q236.96-1.52 236.18-1.88Q235.40-2.24 234.72-2.84L234.72-2.84Q234.72 0.44 233.80 3.72Q232.88 7 231.46 9.10Q230.04 11.20 228.56 11.20L228.56 11.20ZM234.80-13.72Q237.24-15.96 239.18-18.40Q241.12-20.84 242.20-22.78Q243.28-24.72 243.28-25.56L243.28-25.56Q243.28-26.12 242.72-26.12L242.72-26.12Q241.24-26.12 239.12-22.66Q237.00-19.20 234.80-13.72L234.80-13.72ZM229.60 9.28Q230.32 9.28 231.30 7.24Q232.28 5.20 232.98 2.42Q233.68-0.36 233.68-2.40L233.68-2.40Q233.68-3.60 233.38-4.60Q233.08-5.60 232.32-7.08L232.32-7.08Q230.76-2.48 229.80 1.44Q228.84 5.36 228.84 7.36L228.84 7.36Q228.84 8.28 229.04 8.78Q229.24 9.28 229.60 9.28L229.60 9.28Z M243.04 11.20Q242.20 11.20 241.52 10.42Q240.84 9.64 240.84 7.68L240.84 7.68Q240.84 3.48 243.84-5.54Q246.84-14.56 250.86-21.68Q254.88-28.80 257.96-28.80L257.96-28.80Q258.72-28.80 259.02-28.34Q259.32-27.88 259.32-27.04L259.32-27.04Q259.32-24.84 257.76-22.04Q256.20-19.24 253.72-16.56Q251.24-13.88 248.64-12.08L248.64-12.08Q248.36-11.44 247.88-10.08L247.88-10.08Q248.28-10 248.54-9.62Q248.80-9.24 248.88-8.80L248.88-8.80Q249.20-6.56 249.52-5.32Q249.84-4.08 250.50-3.32Q251.16-2.56 252.36-2.56L252.36-2.56Q253.68-2.56 254.62-3.48Q255.56-4.40 256.80-6.48L256.80-6.48L257.40-6.08Q256.44-3.84 254.96-2.68Q253.48-1.52 252.16-1.52L252.16-1.52Q251.44-1.52 250.66-1.88Q249.88-2.24 249.20-2.84L249.20-2.84Q249.20 0.44 248.28 3.72Q247.36 7 245.94 9.10Q244.52 11.20 243.04 11.20L243.04 11.20ZM249.28-13.72Q251.72-15.96 253.66-18.40Q255.60-20.84 256.68-22.78Q257.76-24.72 257.76-25.56L257.76-25.56Q257.76-26.12 257.20-26.12L257.20-26.12Q255.72-26.12 253.60-22.66Q251.48-19.20 249.28-13.72L249.28-13.72ZM244.08 9.28Q244.80 9.28 245.78 7.24Q246.76 5.20 247.46 2.42Q248.16-0.36 248.16-2.40L248.16-2.40Q248.16-3.60 247.86-4.60Q247.56-5.60 246.80-7.08L246.80-7.08Q245.24-2.48 244.28 1.44Q243.32 5.36 243.32 7.36L243.32 7.36Q243.32 8.28 243.52 8.78Q243.72 9.28 244.08 9.28L244.08 9.28Z M261.44 1.84Q257.88 1.84 257.88-2.12L257.88-2.12Q257.88-3.84 258.50-6.38Q259.12-8.92 260.20-11.76L260.20-11.76Q259.24-11.92 258.76-12.08L258.76-12.08L258.76-12.80Q260.20-12.64 260.52-12.64L260.52-12.64Q262.28-17.20 264.30-20.54Q266.32-23.88 267.48-23.88L267.48-23.88Q267.80-23.88 268.06-23.64Q268.32-23.40 268.32-23L268.32-23Q268.32-22.48 267.82-21.48Q267.32-20.48 266.12-18.40L266.12-18.40Q265.92-18 264.88-16.18Q263.84-14.36 263-12.52L263-12.52L264.48-12.52Q267.80-12.52 270.20-12.76L270.20-12.76L270.20-12.04Q265.84-11.56 263.16-11.56L263.16-11.56L262.56-11.56Q260.36-6.52 260.36-2.84L260.36-2.84Q260.36-1.12 260.88-0.38Q261.40 0.36 262.60 0.36L262.60 0.36Q264.64 0.36 266.64-1.46Q268.64-3.28 270.20-6.48L270.20-6.48L270.72-6.08Q269.24-2.60 266.72-0.38Q264.20 1.84 261.44 1.84L261.44 1.84Z M287.32 3.48Q286.24 3.48 285.40 2.90Q284.56 2.32 284.56 1.48L284.56 1.48Q284.56 0.88 285.12-0.72L285.12-0.72Q288.16-10.16 290.16-15.76Q292.16-21.36 294.96-27.72L294.96-27.72Q292.76-27.28 290.32-25.92L290.32-25.92Q289.52-25.52 289.40-25.52L289.40-25.52Q289.12-25.52 288.64-25.92Q288.16-26.32 288.16-26.60L288.16-26.60Q293.28-28.80 297-28.80L297-28.80Q299.48-28.80 301.86-27.90Q304.24-27 305.76-25.26Q307.28-23.52 307.28-21.08L307.28-21.08Q307.28-17.32 304.32-15.26Q301.36-13.20 297.88-12.52Q294.40-11.84 292.04-11.84L292.04-11.84L291.64-11.84Q291.44-11.16 289.24-3.28L289.24-3.28Q287.84 1.80 287.32 3.48L287.32 3.48ZM291.80-12.48Q294.96-12.64 297.88-13.72Q300.80-14.80 302.70-16.84Q304.60-18.88 304.60-21.76L304.60-21.76Q304.60-24.80 302.52-26.36Q300.44-27.92 297.36-27.96L297.36-27.96Q294.92-23.12 291.80-12.48L291.80-12.48Z M313.04 1.04Q311.68 1.04 310.90 0.32Q310.12-0.40 310.12-1.56L310.12-1.56Q310.12-2.92 311.28-5.48L311.28-5.48Q311.80-6.80 312.06-7.58Q312.32-8.36 312.32-9.04L312.32-9.04Q312.32-10.04 311.86-10.62Q311.40-11.20 310.84-11.58Q310.28-11.96 310.08-12.08L310.08-12.08Q309.20-9.84 308.20-7.70Q307.20-5.56 306.52-4.40L306.52-4.40L306.16-5.08Q308.08-8.80 309.40-12.68L309.40-12.68Q309.00-13.08 309.00-13.64L309.00-13.64Q309.00-14.36 309.30-15Q309.60-15.64 310.02-16Q310.44-16.36 310.68-16.36L310.68-16.36Q311.24-16.36 311.24-15.40L311.24-15.40Q311.24-15.24 311.04-14.68Q310.84-14.12 310.80-13.92L310.80-13.92Q310.80-13.52 311.14-13.18Q311.48-12.84 312.24-12.32L312.24-12.32Q313.48-11.44 314.18-10.58Q314.88-9.72 314.88-8.36L314.88-8.36Q314.88-7.48 314.60-6.62Q314.32-5.76 313.76-4.36L313.76-4.36Q312.88-2.44 312.88-1.60L312.88-1.60Q312.88-0.40 314.08-0.40L314.08-0.40Q315.28-0.40 316.66-1.36Q318.04-2.32 319.20-3.74Q320.36-5.16 320.88-6.36L320.88-6.36L321.40-5.96Q320.16-3.20 317.80-1.08Q315.44 1.04 313.04 1.04L313.04 1.04Z M324.80 1.28Q323.16 1.28 322.40 0.28Q321.64-0.72 321.64-2.36L321.64-2.36Q321.64-4 322.32-5.80Q323.00-7.60 324.08-8.80Q325.16-10 326.24-10L326.24-10Q326.60-10 327.08-9.80L327.08-9.80Q326.60-9.40 325.92-8.04Q325.24-6.68 324.74-5.14Q324.24-3.60 324.24-2.64L324.24-2.64Q324.24-0.36 325.68-0.36L325.68-0.36Q326.52-0.36 327.68-1.24Q328.84-2.12 329.96-3.56L329.96-3.56Q328.84-4.48 328.22-5.96Q327.60-7.44 327.60-9.04L327.60-9.04Q327.60-11.12 328.66-12.60Q329.72-14.08 331.52-14.08L331.52-14.08Q333.04-14.08 333.66-13.26Q334.28-12.44 334.28-11L334.28-11Q334.28-9.48 333.54-7.58Q332.80-5.68 331.60-3.88L331.60-3.88Q332.32-3.48 333.12-3.48L333.12-3.48Q334.28-3.48 335.52-4.18Q336.76-4.88 337.40-6.36L337.40-6.36L337.88-5.96Q337.12-4.20 335.72-3.36Q334.32-2.52 332.84-2.52L332.84-2.52Q331.76-2.52 330.92-2.92L330.92-2.92Q329.48-1.04 327.86 0.12Q326.24 1.28 324.80 1.28L324.80 1.28ZM330.68-4.60Q331.72-6.16 332.36-7.78Q333.00-9.40 333.00-10.76L333.00-10.76Q333.00-11.88 332.66-12.44Q332.32-13 331.80-13L331.80-13Q331.24-13 330.66-12.46Q330.08-11.92 329.70-10.98Q329.32-10.04 329.32-8.92L329.32-8.92Q329.32-7.68 329.66-6.54Q330.00-5.40 330.68-4.60L330.68-4.60Z M344.04-17.48Q343.36-17.48 342.90-17.82Q342.44-18.16 342.44-18.76L342.44-18.76Q342.44-19.60 343.38-20.24Q344.32-20.88 345.36-20.88L345.36-20.88Q345.96-20.88 346.32-20.60Q346.68-20.32 346.68-19.76L346.68-19.76Q346.68-18.88 345.86-18.18Q345.04-17.48 344.04-17.48L344.04-17.48ZM333.04 11.20Q332.04 11.20 331.50 10.64Q330.96 10.08 330.96 9.16L330.96 9.16Q330.96 7.68 332.38 5.92Q333.80 4.16 336 2.92L336 2.92Q336.60 2.56 337.56 2.12L337.56 2.12Q338.16 1.88 338.56 1.64L338.56 1.64Q340.28-2.64 341.24-8.20L341.24-8.20Q341-7.76 339.92-5.96L339.92-5.96Q339.52-5.36 339.36-5.04L339.36-5.04L339-5.64Q339.72-7 340.72-9.60L340.72-9.60Q341.60-11.84 342.16-12.86Q342.72-13.88 343.40-13.88L343.40-13.88Q343.84-13.88 344.10-13.54Q344.36-13.20 344.36-12.68L344.36-12.68Q344.36-11.60 343.42-7.60Q342.48-3.60 341.16 0.32L341.16 0.32L341.88-0.12Q344-1.32 345.38-2.54Q346.76-3.76 348.12-6.28L348.12-6.28L348.64-6Q347.48-3.32 345.86-1.90Q344.24-0.48 341.88 0.80L341.88 0.80L340.76 1.44Q339.20 5.68 337.24 8.44Q335.28 11.20 333.04 11.20L333.04 11.20ZM332.68 9.84Q333.56 9.84 335.08 8Q336.60 6.16 338.04 2.92L338.04 2.92Q335.12 4.36 333.56 5.96Q332 7.56 332 8.88L332 8.88Q332 9.84 332.68 9.84L332.68 9.84Z M353.68 1.76Q351.32 1.76 350.06 0.46Q348.80-0.84 348.80-2.88L348.80-2.88Q348.80-5.24 350.36-7.96Q351.92-10.68 354.30-12.54Q356.68-14.40 358.96-14.40L358.96-14.40Q361.44-14.40 361.44-11.96L361.44-11.96Q361.44-10 359.96-8.30Q358.48-6.60 356.16-5.52Q353.84-4.44 351.52-4.20L351.52-4.20Q351.36-3.52 351.36-2.76L351.36-2.76Q351.36-1.32 352.08-0.36Q352.80 0.60 354.52 0.60L354.52 0.60Q356.96 0.60 359.44-1.44Q361.92-3.48 363.48-6.48L363.48-6.48L363.96-6.12Q362.36-2.56 359.52-0.40Q356.68 1.76 353.68 1.76L353.68 1.76ZM351.72-4.96Q353.40-5.56 355.24-6.64Q357.08-7.72 358.38-9.18Q359.68-10.64 359.68-12.24L359.68-12.24Q359.68-12.72 359.50-12.94Q359.32-13.16 358.84-13.16L358.84-13.16Q357.60-13.16 356.14-11.92Q354.68-10.68 353.46-8.76Q352.24-6.84 351.72-4.96L351.72-4.96Z M376.56 1.52Q375.16 1.52 374.24 0.32Q373.32-0.88 372.90-2.56Q372.48-4.24 372.48-5.68L372.48-5.68Q373.24-5.68 374.46-6.12Q375.68-6.56 376.64-7.42Q377.60-8.28 377.60-9.52L377.60-9.52Q377.60-10.32 377-10.82Q376.40-11.32 375.60-11.32L375.60-11.32Q373.04-11.32 371.22-8.04Q369.40-4.76 368.04-0.64L368.04-0.64L367.60 0.52Q367.40 0.88 367.02 1.06Q366.64 1.24 366.24 1.24L366.24 1.24Q365.32 1.24 365.08 0.28Q364.84-0.68 364.84-2.52L364.84-2.52Q364.84-6.44 367.22-12.64Q369.60-18.84 372.58-23.70Q375.56-28.56 376.96-28.56L376.96-28.56Q377.48-28.56 377.84-27.80Q378.20-27.04 378.20-25.96L378.20-25.96Q378.20-24.12 377.14-21.76Q376.08-19.40 374.20-17.20Q372.32-15 370.04-13.64L370.04-13.64Q368.76-10.52 368.08-7.44Q367.40-4.36 367.40-2.20L367.40-2.20Q369.16-6.64 371.44-10.02Q373.72-13.40 376.36-13.40L376.36-13.40Q377.84-13.40 378.88-12.36Q379.92-11.32 379.92-9.84L379.92-9.84Q379.92-8.28 378.90-7.22Q377.88-6.16 376.54-5.66Q375.20-5.16 374.24-5.16L374.24-5.16Q374.44-3.68 375.22-1.84Q376 0 377.36 0L377.36 0Q380.36 0 383.28-6.52L383.28-6.52L383.68-6.12Q383.12-4.16 381.96-2.40Q380.80-0.64 379.36 0.44Q377.92 1.52 376.56 1.52L376.56 1.52ZM370.72-15.24Q372.48-16.64 373.88-18.52Q375.28-20.40 376.06-22.16Q376.84-23.92 376.84-24.96L376.84-24.96Q376.84-25.32 376.72-25.32L376.72-25.32Q376.12-25.32 374.28-22.26Q372.44-19.20 370.72-15.24L370.72-15.24Z M387.92 1.84Q384.36 1.84 384.36-2.12L384.36-2.12Q384.36-3.84 384.98-6.38Q385.60-8.92 386.68-11.76L386.68-11.76Q385.72-11.92 385.24-12.08L385.24-12.08L385.24-12.80Q386.68-12.64 387-12.64L387-12.64Q388.76-17.20 390.78-20.54Q392.80-23.88 393.96-23.88L393.96-23.88Q394.28-23.88 394.54-23.64Q394.80-23.40 394.80-23L394.80-23Q394.80-22.48 394.30-21.48Q393.80-20.48 392.60-18.40L392.60-18.40Q392.40-18 391.36-16.18Q390.32-14.36 389.48-12.52L389.48-12.52L390.96-12.52Q394.28-12.52 396.68-12.76L396.68-12.76L396.68-12.04Q392.32-11.56 389.64-11.56L389.64-11.56L389.04-11.56Q386.84-6.52 386.84-2.84L386.84-2.84Q386.84-1.12 387.36-0.38Q387.88 0.36 389.08 0.36L389.08 0.36Q391.12 0.36 393.12-1.46Q395.12-3.28 396.68-6.48L396.68-6.48L397.20-6.08Q395.72-2.60 393.20-0.38Q390.68 1.84 387.92 1.84L387.92 1.84Z"></path></g>
</svg>
</g><g filter="url(#Iay6zw1vs)"><g opacity="1" transform="rotate(0 0 0)">
<svg width="218.3923" height="37.0371" x="0" y="0" version="1.1" preserveAspectRatio="none" viewBox="-0.4 -24.6 225.72 38.28">
  <g transform="matrix(1 0 0 1 0 0)" class="companyName"><path d="M32.96-24L32.96-24L35.48-22.76Q32.92-18.60 29.42-15.36Q25.92-12.12 20.12-8.92L20.12-8.92Q21.24-3.12 22.88 0.38Q24.52 3.88 27.16 4.28L27.16 4.28L27.16 6.12Q26.84 6.16 26.32 6.16L26.32 6.16Q23.64 6.16 21.14 2.44Q18.64-1.28 16.64-8.56L16.64-8.56Q14.92-3.16 11.40-0.02Q7.88 3.12 4.08 3.12L4.08 3.12Q2.12 3.12 0.86 2.06Q-0.40 1-0.40-0.86Q-0.40-2.72 1.28-4.72Q2.96-6.72 5.88-8.08L5.88-8.08L6.80-6.64Q3.20-4.08 3.20-1.84L3.20-1.84Q3.20-0.76 3.92-0.10Q4.64 0.56 5.80 0.56L5.80 0.56Q8.52 0.56 10.50-1.74Q12.48-4.04 14.04-9.80L14.04-9.80Q16-17.04 18.04-19.28L18.04-19.28Q18.96-20.32 20.72-21.56L20.72-21.56Q17.96-21.48 15.08-20.62Q12.20-19.76 10.04-18.06Q7.88-16.36 7.88-14.28L7.88-14.28Q7.88-11.60 10.32-10L10.32-10L9.52-8.76Q7.28-9.84 6-11.56Q4.72-13.28 4.72-15.12L4.72-15.12Q4.72-17.64 7.48-19.88Q10.24-22.12 14.26-23.36Q18.28-24.60 22.16-24.60L22.16-24.60Q24.56-24.60 24.56-23.56L24.56-23.56Q24.56-22.88 23.16-21.84L23.16-21.84Q20.60-19.92 19.22-16.84Q17.84-13.76 16.96-9.64L16.96-9.64Q21.52-11.32 25.70-15.22Q29.88-19.12 32.96-24Z M46.32-4.40L46.32-4.40L47.16-3.72Q46.48-2.04 45.02-0.88Q43.56 0.28 42.38 0.28Q41.20 0.28 40.52-0.54Q39.84-1.36 39.84-2.68Q39.84-4 40.28-6.08L40.28-6.08Q38.40-3.12 36.24-1.44Q34.08 0.24 32.60 0.24L32.60 0.24Q30.36 0.24 30.36-2.96L30.36-2.96Q30.36-5.68 32.20-9.92Q34.04-14.16 34.88-14.84L34.88-14.84L36.80-14Q35.16-11.36 34.32-8.80Q33.48-6.24 33.48-5.38Q33.48-4.52 34.02-4Q34.56-3.48 35.28-3.48L35.28-3.48Q36.88-3.48 39.26-6.42Q41.64-9.36 44.12-15.20L44.12-15.20L46.16-14.28Q46.08-13.96 44.34-9.64Q42.60-5.32 42.60-4.46Q42.60-3.60 42.98-3.16Q43.36-2.72 43.74-2.72Q44.12-2.72 44.32-2.76Q44.52-2.80 44.72-2.92Q44.92-3.04 45.06-3.12Q45.20-3.20 45.40-3.40L45.40-3.40L45.72-3.68Q45.80-3.80 46.02-4.06Q46.24-4.32 46.32-4.40Z M57.08-14.16L57.08-14.16Q58.08-14.16 58.72-13.48Q59.36-12.80 59.36-11.72L59.36-11.72Q59.36-9.56 56.88-7.16L56.88-7.16L55.92-7.92Q56.48-9.16 56.48-9.72L56.48-9.72Q56.48-10.80 55.28-10.80Q54.08-10.80 53.00-9.28Q51.92-7.76 50.46-4.58Q49.00-1.40 48.24-0.08L48.24-0.08L45.96-1.08Q48.16-6.08 48.48-6.96L48.48-6.96Q49.56-10.08 49.56-14.88L49.56-14.88L51.80-15.48Q51.68-12.88 51.44-11.46Q51.20-10.04 50.28-6.84L50.28-6.84Q54.32-14.16 57.08-14.16Z M71.88-2.96L71.88-2.96L71.84-1.28Q70.92-1.24 69.32-1.20Q67.72-1.16 67.10-1.14Q66.48-1.12 65.40-1.04L65.40-1.04Q63.56-0.92 62.00-0.56L62.00-0.56Q60.04-0.12 59.88-0.12L59.88-0.12Q59.12-0.12 58.34-1.04Q57.56-1.96 57.56-2.84L57.56-2.84Q57.56-4.52 69.56-12.96L69.56-12.96Q69.04-13 67.18-13Q65.32-13 60.72-12.20L60.72-12.20L60.48-13.56Q63.20-15.20 70.64-15.20L70.64-15.20Q72.20-15.20 72.86-14.96Q73.52-14.72 73.52-13.88L73.52-13.88Q73.52-12.96 72.48-12.20L72.48-12.20Q72.28-12.04 71.82-11.76Q71.36-11.48 70.16-10.64Q68.96-9.80 67.74-8.90Q66.52-8 64.64-6.20Q62.76-4.40 61.04-2.24L61.04-2.24Q66.56-3.12 68.50-3.12Q70.44-3.12 71.88-2.96Z M108.96-4.40L108.96-4.40L110.04-3.72Q109.52-2 108.30-0.98Q107.08 0.04 105.64 0.04Q104.20 0.04 102.36-1.80L102.36-1.80Q100.24 0.04 96.80 0.04Q93.36 0.04 91.48-1.60Q89.60-3.24 89.60-5.62Q89.60-8 91.56-9.82Q93.52-11.64 97.08-12.52L97.08-12.52Q96.32-14.68 96.32-16.04L96.32-16.04Q96.32-18.16 98.02-19.58Q99.72-21 102.00-21Q104.28-21 105.62-19.98Q106.96-18.96 106.96-17.32L106.96-17.32Q106.96-13.84 100.20-12.12L100.20-12.12Q102.16-7.32 103.56-5.24L103.56-5.24Q104.48-6.56 105.68-10.16L105.68-10.16L106.96-10.16Q106.80-9 106.06-7.18Q105.32-5.36 104.48-4.20L104.48-4.20Q105.84-2.48 106.84-2.48L106.84-2.48Q108.20-2.48 108.96-4.40ZM104.44-17.32Q104.44-18.44 103.76-19.10Q103.08-19.76 101.90-19.76Q100.72-19.76 99.88-18.82Q99.04-17.88 99.04-16.72Q99.04-15.56 99.72-13.36L99.72-13.36Q104.44-14.60 104.44-17.32L104.44-17.32ZM93.16-6.60Q93.16-4.92 94.38-3.48Q95.60-2.04 98.08-2.04Q100.56-2.04 101.60-2.96L101.60-2.96Q99.48-6.20 97.44-11.32L97.44-11.32Q95.60-10.92 94.38-9.60Q93.16-8.28 93.16-6.60Z M158.20-24L158.20-24L160.72-22.76Q158.16-18.60 154.66-15.36Q151.16-12.12 145.36-8.92L145.36-8.92Q146.48-3.12 148.12 0.38Q149.76 3.88 152.40 4.28L152.40 4.28L152.40 6.12Q152.08 6.16 151.56 6.16L151.56 6.16Q148.88 6.16 146.38 2.44Q143.88-1.28 141.88-8.56L141.88-8.56Q140.16-3.16 136.64-0.02Q133.12 3.12 129.32 3.12L129.32 3.12Q127.36 3.12 126.10 2.06Q124.84 1 124.84-0.86Q124.84-2.72 126.52-4.72Q128.20-6.72 131.12-8.08L131.12-8.08L132.04-6.64Q128.44-4.08 128.44-1.84L128.44-1.84Q128.44-0.76 129.16-0.10Q129.88 0.56 131.04 0.56L131.04 0.56Q133.76 0.56 135.74-1.74Q137.72-4.04 139.28-9.80L139.28-9.80Q141.24-17.04 143.28-19.28L143.28-19.28Q144.20-20.32 145.96-21.56L145.96-21.56Q143.20-21.48 140.32-20.62Q137.44-19.76 135.28-18.06Q133.12-16.36 133.12-14.28L133.12-14.28Q133.12-11.60 135.56-10L135.56-10L134.76-8.76Q132.52-9.84 131.24-11.56Q129.96-13.28 129.96-15.12L129.96-15.12Q129.96-17.64 132.72-19.88Q135.48-22.12 139.50-23.36Q143.52-24.60 147.40-24.60L147.40-24.60Q149.80-24.60 149.80-23.56L149.80-23.56Q149.80-22.88 148.40-21.84L148.40-21.84Q145.84-19.92 144.46-16.84Q143.08-13.76 142.20-9.64L142.20-9.64Q146.76-11.32 150.94-15.22Q155.12-19.12 158.20-24Z M172.28-4.84L172.28-4.84L173.12-4.20Q172.24-2.44 170.70-1.24Q169.16-0.04 167.92-0.04Q166.68-0.04 165.96-0.76Q165.24-1.48 165.24-2.56Q165.24-3.64 166.62-6.34Q168.00-9.04 168.00-10.32L168.00-10.32Q168.00-10.88 167.54-11.34Q167.08-11.80 166.44-11.80L166.44-11.80Q164.40-11.80 162.32-8.70Q160.24-5.60 157.68 0.24L157.68 0.24L155.28-0.60Q156.04-5.24 157.46-9.66Q158.88-14.08 160.08-16L160.08-16L161.72-15.48Q160.60-12.64 158.88-5.68L158.88-5.68Q164.40-15.12 169.04-15.12L169.04-15.12Q170.04-15.12 170.70-14.44Q171.36-13.76 171.36-12.84Q171.36-11.92 171.12-11.18Q170.88-10.44 169.62-7.74Q168.36-5.04 168.36-4.36Q168.36-3.68 168.76-3.30Q169.16-2.92 169.52-2.92Q169.88-2.92 170.12-3.04Q170.36-3.16 170.66-3.40Q170.96-3.64 171.20-3.84Q171.44-4.04 171.78-4.38Q172.12-4.72 172.28-4.84Z M189.24-4.04L189.24-4.04L190.16-3.36Q189.60-2.16 188.10-1.08Q186.60 0 185.36 0L185.36 0Q183.00 0 183.00-2.48L183.00-2.48Q183.00-3.64 183.60-5.24L183.60-5.24L182.12-3.72Q179.96-1.52 178.38-0.76Q176.80 0 175.28 0Q173.76 0 172.98-0.86Q172.20-1.72 172.20-3.24L172.20-3.24Q172.20-6.04 174.36-8.78Q176.52-11.52 179.88-13.24Q183.24-14.96 186.60-15L186.60-15L186.68-13.68L185.00-13.32Q181.36-12.52 178.58-10.12Q175.80-7.72 175.80-5.34Q175.80-2.96 177.72-2.96L177.72-2.96Q179.52-2.96 182.16-5.48Q184.80-8 186.56-11.40L186.56-11.40L188.24-10.40Q185.76-5.40 185.76-4.04L185.76-4.04Q185.76-3.48 186.14-3.10Q186.52-2.72 186.90-2.72Q187.28-2.72 187.40-2.76Q187.52-2.80 187.64-2.86Q187.76-2.92 187.94-3.04Q188.12-3.16 188.26-3.28Q188.40-3.40 188.72-3.64Q189.04-3.88 189.24-4.04Z M194.80-7.36Q197.84-11.92 200.08-13.58Q202.32-15.24 204.00-15.24Q205.68-15.24 206.60-14.22Q207.52-13.20 207.52-11.64L207.52-11.64Q207.52-7.32 204.42-3.66Q201.32 0 197.44 0L197.44 0Q195.72 0 194.72-0.60L194.72-0.60L195.68-2.32Q197.76-2.04 198.28-2.04L198.28-2.04Q200.44-2.04 202.32-4.56Q204.20-7.08 204.20-9.72L204.20-9.72Q204.20-10.72 203.62-11.38Q203.04-12.04 202.12-12.04L202.12-12.04Q199.92-12.04 197.14-8.16Q194.36-4.28 191.94 1.46Q189.52 7.20 187.72 13.68L187.72 13.68L185.32 12.84Q185.40 12.60 186.82 8.70Q188.24 4.80 189.60 0.96L189.60 0.96Q193.36-9.60 193.36-10.60L193.36-10.60Q193.36-13.16 192.32-15.24L192.32-15.24L194.32-16.24Q195.56-14.52 195.56-12.62Q195.56-10.72 194.80-7.36L194.80-7.36Z M212.60-7.36Q215.64-11.92 217.88-13.58Q220.12-15.24 221.80-15.24Q223.48-15.24 224.40-14.22Q225.32-13.20 225.32-11.64L225.32-11.64Q225.32-7.32 222.22-3.66Q219.12 0 215.24 0L215.24 0Q213.52 0 212.52-0.60L212.52-0.60L213.48-2.32Q215.56-2.04 216.08-2.04L216.08-2.04Q218.24-2.04 220.12-4.56Q222.00-7.08 222.00-9.72L222.00-9.72Q222.00-10.72 221.42-11.38Q220.84-12.04 219.92-12.04L219.92-12.04Q217.72-12.04 214.94-8.16Q212.16-4.28 209.74 1.46Q207.32 7.20 205.52 13.68L205.52 13.68L203.12 12.84Q203.20 12.60 204.62 8.70Q206.04 4.80 207.40 0.96L207.40 0.96Q211.16-9.60 211.16-10.60L211.16-10.60Q211.16-13.16 210.12-15.24L210.12-15.24L212.12-16.24Q213.36-14.52 213.36-12.62Q213.36-10.72 212.60-7.36L212.60-7.36Z"></path></g>
</svg>
</g></g></svg>